<svg width="24" height="24" viewBox="0 0 24 24" fill="none" xmlns="http://www.w3.org/2000/svg">
<path d="M8.00701 11.9797C7.95095 13.323 8.25522 14.6569 8.88826 15.843C9.35867 16.632 10.0813 17.2394 10.9395 17.5671C11.7976 17.8948 12.7412 17.9236 13.6178 17.649C14.2273 17.4777 14.7725 17.1299 15.1848 16.6495C15.5972 16.1691 15.8583 15.5774 15.9353 14.949L16.017 14.4915C17.3198 14.6797 19.4198 14.985 20.7225 15.171L20.64 15.501C20.345 17.0075 19.6449 18.4051 18.615 19.5435C17.5285 20.6354 16.1156 21.3432 14.5905 21.5595C12.5055 21.961 10.3487 21.7475 8.38276 20.9452C7.36507 20.5249 6.45067 19.8888 5.70265 19.0809C4.95463 18.2729 4.39078 17.3123 4.05001 16.2652C3.01134 13.4961 3.01641 10.4435 4.06426 7.67775C4.55908 6.24391 5.45597 4.98271 6.64792 4.04464C7.83987 3.10656 9.27654 2.53121 10.7865 2.38725C12.4613 2.09948 14.1818 2.24273 15.786 2.8035C16.9317 3.20461 17.9569 3.88972 18.7657 4.79475C19.5746 5.69978 20.1408 6.79518 20.4113 7.9785C20.4818 8.2425 20.4968 8.29125 20.4968 8.29125C19.0478 8.5545 17.2575 8.89125 15.8183 9.2025C15.5468 7.76625 14.8695 6.6315 13.4183 6.2775C12.9167 6.122 12.3893 6.06811 11.8667 6.11901C11.3441 6.1699 10.8369 6.32454 10.3748 6.57389C9.91271 6.82323 9.50502 7.16225 9.17559 7.57111C8.84615 7.97997 8.6016 8.45045 8.45626 8.955C8.33458 9.30746 8.23808 9.66811 8.16751 10.0342C8.04535 10.6752 7.99155 11.3274 8.00701 11.9797Z" fill="white"/>
</svg>
