<svg width="24" height="24" viewBox="0 0 24 24" fill="none" xmlns="http://www.w3.org/2000/svg">
<path fill-rule="evenodd" clip-rule="evenodd" d="M17 21.75C18.2598 21.75 19.468 21.2496 20.3588 20.3588C21.2496 19.468 21.75 18.2598 21.75 17V7C21.75 5.74022 21.2496 4.53204 20.3588 3.64124C19.468 2.75044 18.2598 2.25 17 2.25H7C5.74022 2.25 4.53204 2.75044 3.64124 3.64124C2.75044 4.53204 2.25 5.74022 2.25 7V17C2.25 18.2598 2.75044 19.468 3.64124 20.3588C4.53204 21.2496 5.74022 21.75 7 21.75H17ZM15.25 16C15.25 16.1989 15.329 16.3897 15.4697 16.5303C15.6103 16.671 15.8011 16.75 16 16.75C16.1989 16.75 16.3897 16.671 16.5303 16.5303C16.671 16.3897 16.75 16.1989 16.75 16V12C16.75 11.8011 16.671 11.6103 16.5303 11.4697C16.3897 11.329 16.1989 11.25 16 11.25C15.8011 11.25 15.6103 11.329 15.4697 11.4697C15.329 11.6103 15.25 11.8011 15.25 12V16ZM16 9.76C15.8011 9.76 15.6103 9.68098 15.4697 9.54033C15.329 9.39968 15.25 9.20891 15.25 9.01V9C15.25 8.80109 15.329 8.61032 15.4697 8.46967C15.6103 8.32902 15.8011 8.25 16 8.25C16.1989 8.25 16.3897 8.32902 16.5303 8.46967C16.671 8.61032 16.75 8.80109 16.75 9V9.01C16.75 9.20891 16.671 9.39968 16.5303 9.54033C16.3897 9.68098 16.1989 9.76 16 9.76ZM6.298 15.737C6.25991 15.8299 6.24086 15.9295 6.24199 16.03C6.24313 16.1304 6.26441 16.2295 6.30459 16.3216C6.34477 16.4136 6.40303 16.4966 6.4759 16.5657C6.54878 16.6348 6.63478 16.6886 6.72882 16.7238C6.82286 16.7591 6.92302 16.775 7.02336 16.7708C7.12369 16.7666 7.22216 16.7423 7.31292 16.6993C7.40369 16.6564 7.48489 16.5956 7.55173 16.5206C7.61856 16.4457 7.66966 16.3581 7.702 16.263L8.645 13.75H11.355L12.298 16.263C12.3311 16.3572 12.3826 16.4439 12.4496 16.5179C12.5166 16.592 12.5977 16.6519 12.6882 16.6942C12.7787 16.7365 12.8767 16.7602 12.9764 16.7641C13.0762 16.768 13.1758 16.752 13.2693 16.7169C13.3628 16.6818 13.4483 16.6284 13.5209 16.5598C13.5934 16.4912 13.6516 16.4088 13.6919 16.3174C13.7322 16.2261 13.7539 16.1276 13.7556 16.0277C13.7573 15.9279 13.7391 15.8287 13.702 15.736L10.702 7.736C10.6483 7.59321 10.5523 7.47019 10.4269 7.38336C10.3015 7.29652 10.1526 7.25 10 7.25C9.84745 7.25 9.69852 7.29652 9.57309 7.38336C9.44766 7.47019 9.3517 7.59321 9.298 7.736L6.298 15.737ZM10 10.136L10.793 12.25H9.207L10 10.136Z" fill="white"/>
</svg>
