<svg width="24" height="24" viewBox="0 0 24 24" fill="none" xmlns="http://www.w3.org/2000/svg">
<g clip-path="url(#clip0_720_4)">
<path d="M17.8118 22.5039C17.7225 22.5511 17.73 22.5661 17.8155 22.5226C17.8419 22.512 17.8661 22.4965 17.8868 22.4769C17.8868 22.4611 17.8868 22.4611 17.8118 22.5039ZM17.9918 22.4064C17.949 22.4416 17.949 22.4416 18 22.4184C18.0185 22.409 18.0357 22.3972 18.051 22.3831C18.051 22.3629 18.039 22.3674 17.9918 22.4064ZM18.1088 22.3359C18.066 22.3711 18.066 22.3711 18.117 22.3479C18.1356 22.3383 18.1528 22.3262 18.168 22.3119C18.168 22.2931 18.156 22.2969 18.1088 22.3359ZM18.2272 22.2661C18.1845 22.3014 18.1845 22.3014 18.234 22.2774C18.2618 22.2624 18.285 22.2466 18.285 22.2421C18.285 22.2234 18.273 22.2271 18.2272 22.2661ZM18.387 22.1604C18.3053 22.2151 18.2767 22.2504 18.3517 22.2114C18.402 22.1806 18.4875 22.1131 18.4725 22.1131C18.4402 22.1251 18.4132 22.1454 18.3862 22.1604H18.387ZM11.2148 0.00838117C11.16 0.0121312 10.9957 0.0271312 10.8517 0.0391312C7.44075 0.348131 4.2495 2.18413 2.22675 5.01238C1.10819 6.56316 0.381511 8.36159 0.10875 10.2541C0.012 10.9141 0 11.1091 0 12.0039C0 12.8979 0.012 13.0899 0.10875 13.7499C0.762 18.2581 3.969 22.0426 8.316 23.4451C9.09825 23.6949 9.918 23.8674 10.8517 23.9731C11.2147 24.0121 12.7845 24.0121 13.1475 23.9731C14.7615 23.7931 16.1243 23.3949 17.4728 22.7071C17.6798 22.6021 17.7187 22.5744 17.691 22.5511C17.0332 21.6816 16.3809 20.8078 15.7343 19.9299L13.8165 17.3401L11.4142 13.7814C10.6152 12.5898 9.80792 11.4038 8.9925 10.2234C8.98425 10.2234 8.97375 11.8051 8.96925 13.7341C8.961 17.1129 8.961 17.2501 8.91825 17.3281C8.87737 17.4224 8.80388 17.4988 8.71125 17.5434C8.637 17.5786 8.57025 17.5861 8.2155 17.5861H7.80975L7.704 17.5201C7.63788 17.4775 7.58409 17.4183 7.548 17.3484L7.497 17.2426L7.50075 12.5394L7.509 7.83613L7.58325 7.74238C7.63129 7.68537 7.68953 7.6378 7.755 7.60213C7.85325 7.55488 7.89225 7.54738 8.298 7.54738C8.77425 7.54738 8.853 7.56613 8.97825 7.70338C9.9514 9.15079 10.9162 10.6038 11.8725 12.0624C13.4317 14.4264 15.5603 17.6521 16.6065 19.2346L18.5093 22.1139L18.603 22.0516C19.5171 21.4436 20.3457 20.7159 21.0668 19.8879C22.5782 18.1576 23.5591 16.0284 23.892 13.7551C23.9888 13.0951 24.0007 12.8994 24.0007 12.0054C24.0007 11.1114 23.9888 10.9194 23.892 10.2594C23.2388 5.75113 20.0318 1.96663 15.6848 0.563381C14.8723 0.306155 14.0361 0.131029 13.1887 0.0406312C12.9615 0.0173812 11.4105 -0.0103688 11.2155 0.00988117L11.2148 0.00838117ZM16.125 7.26613C16.1809 7.29343 16.2307 7.33165 16.2715 7.37855C16.3124 7.42544 16.3434 7.48004 16.3627 7.53913C16.383 7.60213 16.3867 8.90638 16.383 11.8441L16.3748 16.0621L15.633 14.9221L14.8868 13.7814V10.7191C14.8868 8.73388 14.895 7.62088 14.9055 7.56613C14.9422 7.44059 15.0264 7.33432 15.1403 7.26988C15.2333 7.22263 15.2693 7.21888 15.6405 7.21888C15.9878 7.21888 16.047 7.22263 16.125 7.26613Z" fill="white"/>
</g>
<defs>
<clipPath id="clip0_720_4">
<rect width="24" height="24" fill="white"/>
</clipPath>
</defs>
</svg>
