<svg width="24" height="24" viewBox="0 0 24 24" fill="none" xmlns="http://www.w3.org/2000/svg">
<path d="M20.432 12.904V18.898C20.415 19.595 20.077 19.98 19.379 20.038C18.578 20.104 17.773 20.146 16.969 20.194C15.349 20.294 13.7287 20.392 12.108 20.488C10.673 20.573 9.238 20.648 7.805 20.745C7.171 20.786 6.672 20.586 6.321 20.042C6.217 19.881 6.084 19.736 5.966 19.582C5.366 18.808 4.771 18.032 4.168 17.262C3.76274 16.7651 3.54756 16.1401 3.561 15.499C3.581 12.089 3.569 8.68102 3.571 5.27202C3.571 5.14335 3.581 5.01535 3.601 4.88802C3.693 4.38802 4.003 4.07802 4.509 4.03002C5.337 3.95202 6.178 3.89802 7.013 3.83502L11.003 3.54102C12.281 3.44802 13.559 3.35902 14.837 3.25802C15.4776 3.20608 16.1145 3.39507 16.623 3.78802C17.749 4.60502 18.893 5.39502 20.035 6.19202C20.1672 6.27682 20.2743 6.39545 20.3451 6.5356C20.416 6.67574 20.4481 6.8323 20.438 6.98902C20.427 8.96002 20.432 10.932 20.432 12.904ZM19.27 12.981V7.87702C19.27 7.38502 19.097 7.21502 18.62 7.24302L14.47 7.47902L9.38 7.77702C8.782 7.81102 8.184 7.84768 7.586 7.88702C7.269 7.90902 7.125 8.04902 7.078 8.36002C7.066 8.45002 7.061 8.54002 7.063 8.63002V18.49C7.063 19.257 7.267 19.449 8.037 19.404C8.807 19.359 9.576 19.309 10.354 19.264L18.593 18.791C19.035 18.766 19.236 18.571 19.271 18.132C19.277 18.055 19.271 17.978 19.271 17.896L19.27 12.981ZM18.023 6.06502L18.05 6.01402C17.9896 5.93984 17.9227 5.87124 17.85 5.80902C17.304 5.41002 16.752 5.01902 16.207 4.62602C15.85 4.35302 15.407 4.21602 14.958 4.24102C14.064 4.29502 13.172 4.36602 12.278 4.43102L6.534 4.84802C6.122 4.87802 5.705 4.91002 5.303 4.95802C5.25802 4.96701 5.2157 4.9862 5.17929 5.01411C5.14289 5.04202 5.11337 5.07791 5.093 5.11902C5.076 5.16802 5.157 5.27802 5.22 5.32902C5.67 5.69202 6.128 6.04902 6.582 6.40702C6.827 6.61102 7.14 6.71702 7.458 6.70402C7.613 6.69702 7.768 6.70402 7.922 6.69002L12.09 6.43402L17.628 6.10802C17.76 6.09268 17.8917 6.07835 18.023 6.06502Z" fill="white"/>
<path d="M15.527 14.688V10.028C15.275 9.99801 15.034 9.96301 14.791 9.94501C14.658 9.93501 14.627 9.87501 14.641 9.75801C14.6538 9.63109 14.7096 9.51235 14.799 9.42143C14.8885 9.33051 15.0063 9.27285 15.133 9.25801C15.936 9.19801 16.739 9.15701 17.538 9.10901C17.657 9.50601 17.538 9.70101 17.158 9.77601C16.739 9.86301 16.739 9.86301 16.739 10.288V17.133C16.739 17.292 16.697 17.389 16.547 17.436C16.2827 17.5352 16.0133 17.6203 15.74 17.691C15.301 17.783 14.912 17.661 14.651 17.282C14.2876 16.7584 13.9325 16.229 13.586 15.694C12.782 14.45 11.988 13.201 11.189 11.954C11.173 11.928 11.151 11.903 11.106 11.841C11.096 11.927 11.087 11.976 11.087 12.027V16.687C11.087 16.824 11.131 16.88 11.263 16.905C11.559 16.963 11.854 17.034 12.143 17.099C12.1379 17.2441 12.0804 17.3824 11.9811 17.4883C11.8818 17.5943 11.7475 17.6606 11.603 17.675C11.3606 17.7078 11.1166 17.7278 10.872 17.735C10.28 17.771 9.68801 17.799 9.09701 17.841C8.92401 17.853 8.889 17.781 8.919 17.64C8.92822 17.5555 8.96348 17.4759 9.01992 17.4123C9.07635 17.3487 9.15117 17.3042 9.23401 17.285C9.42001 17.24 9.60401 17.181 9.78801 17.129V10.439L8.959 10.365C8.93132 10.2787 8.92383 10.1872 8.9371 10.0975C8.95037 10.0079 8.98406 9.92245 9.03555 9.84786C9.08705 9.77327 9.15499 9.71151 9.23412 9.66732C9.31326 9.62314 9.40149 9.59771 9.492 9.59301C10.217 9.53501 10.947 9.51301 11.67 9.43101C11.979 9.39701 12.123 9.51101 12.278 9.75001C13.301 11.326 14.338 12.896 15.371 14.467L15.527 14.688Z" fill="white"/>
</svg>
