<svg width="24" height="24" viewBox="0 0 24 24" fill="none" xmlns="http://www.w3.org/2000/svg">
<path d="M9.367 2.25H14.633C15.725 2.25 16.591 2.25 17.288 2.307C18.002 2.365 18.605 2.487 19.157 2.767C20.0506 3.22284 20.777 3.94992 21.232 4.844C21.513 5.394 21.635 5.998 21.693 6.712C21.75 7.409 21.75 8.275 21.75 9.367V14.633C21.75 15.725 21.75 16.591 21.693 17.288C21.635 18.002 21.513 18.605 21.233 19.157C20.7774 20.0505 20.0507 20.7768 19.157 21.232C18.605 21.513 18.002 21.635 17.288 21.693C16.591 21.75 15.725 21.75 14.633 21.75H9.367C8.275 21.75 7.409 21.75 6.712 21.693C5.998 21.635 5.395 21.513 4.844 21.233C3.95014 20.7776 3.22341 20.0509 2.768 19.157C2.487 18.605 2.365 18.002 2.307 17.288C2.25 16.591 2.25 15.725 2.25 14.633V9.367C2.25 8.275 2.25 7.409 2.307 6.712C2.365 5.998 2.487 5.395 2.767 4.844C3.22267 3.94999 3.94977 3.22324 4.844 2.768C5.394 2.487 5.998 2.365 6.712 2.307C7.409 2.25 8.275 2.25 9.367 2.25ZM8.53 8.47C8.38782 8.33752 8.19978 8.2654 8.00548 8.26882C7.81118 8.27225 7.62579 8.35097 7.48838 8.48838C7.35097 8.62579 7.27225 8.81118 7.26883 9.00548C7.2654 9.19978 7.33752 9.38782 7.47 9.53L9.94 12L7.47 14.47C7.39631 14.5387 7.33721 14.6215 7.29622 14.7135C7.25523 14.8055 7.23319 14.9048 7.23141 15.0055C7.22963 15.1062 7.24816 15.2062 7.28588 15.2996C7.3236 15.393 7.37974 15.4778 7.45096 15.549C7.52218 15.6203 7.60701 15.6764 7.7004 15.7141C7.79379 15.7518 7.89382 15.7704 7.99452 15.7686C8.09523 15.7668 8.19454 15.7448 8.28654 15.7038C8.37854 15.6628 8.46134 15.6037 8.53 15.53L11.53 12.53C11.6705 12.3894 11.7493 12.1988 11.7493 12C11.7493 11.8012 11.6705 11.6106 11.53 11.47L8.53 8.47ZM13 14.25C12.8011 14.25 12.6103 14.329 12.4697 14.4697C12.329 14.6103 12.25 14.8011 12.25 15C12.25 15.1989 12.329 15.3897 12.4697 15.5303C12.6103 15.671 12.8011 15.75 13 15.75H16C16.1989 15.75 16.3897 15.671 16.5303 15.5303C16.671 15.3897 16.75 15.1989 16.75 15C16.75 14.8011 16.671 14.6103 16.5303 14.4697C16.3897 14.329 16.1989 14.25 16 14.25H13Z" fill="white"/>
</svg>
