<svg width="24" height="24" viewBox="0 0 24 24" fill="none" xmlns="http://www.w3.org/2000/svg">
<path d="M12 4.85999C8.82667 4.85999 6.84334 6.44665 6.05001 9.61999C7.24001 8.03332 8.62834 7.43832 10.215 7.83499C11.12 8.06099 11.767 8.71798 12.483 9.44498C13.651 10.63 15 12 17.95 12C21.1233 12 23.1067 10.4133 23.9 7.23998C22.71 8.82665 21.3217 9.42165 19.735 9.02498C18.829 8.79898 18.183 8.14199 17.465 7.41499C16.3 6.22999 14.95 4.85999 12 4.85999ZM6.05001 12C2.87667 12 0.893339 13.5867 0.100006 16.76C1.29001 15.1733 2.67834 14.5783 4.26501 14.975C5.17001 15.201 5.81701 15.858 6.53401 16.585C7.70001 17.77 9.05001 19.14 12 19.14C15.1733 19.14 17.1567 17.5533 17.95 14.38C16.76 15.9667 15.3717 16.5617 13.785 16.165C12.879 15.939 12.233 15.282 11.515 14.555C10.35 13.37 9.00001 12 6.05001 12Z" fill="white"/>
</svg>
