<svg width="24" height="24" viewBox="0 0 24 24" fill="none" xmlns="http://www.w3.org/2000/svg">
<path d="M19.24 3H4.76C4.29322 3 3.84556 3.18543 3.51549 3.51549C3.18543 3.84556 3 4.29322 3 4.76V19.24C3 19.7068 3.18543 20.1544 3.51549 20.4845C3.84556 20.8146 4.29322 21 4.76 21H19.24C19.4711 21 19.7 20.9545 19.9135 20.866C20.1271 20.7776 20.3211 20.6479 20.4845 20.4845C20.6479 20.3211 20.7776 20.1271 20.866 19.9135C20.9545 19.7 21 19.4711 21 19.24V4.76C21 4.52887 20.9545 4.30001 20.866 4.08648C20.7776 3.87294 20.6479 3.67892 20.4845 3.51549C20.3211 3.35206 20.1271 3.22242 19.9135 3.13397C19.7 3.04552 19.4711 3 19.24 3ZM13.44 13H11.19V19.44H9.4V13H7.15V11.54H13.44V13ZM19.24 18.28C19.0958 18.5882 18.8624 18.8459 18.57 19.02C18.2628 19.2091 17.9241 19.3412 17.57 19.41C17.175 19.4902 16.773 19.5304 16.37 19.53C15.9576 19.5296 15.546 19.4928 15.14 19.42C14.7949 19.3495 14.4593 19.2388 14.14 19.09V17.38L14.08 17.32H14.14V17.39C14.4407 17.6248 14.7787 17.8074 15.14 17.93C15.5009 18.0664 15.8842 18.1342 16.27 18.13C16.4717 18.1333 16.673 18.1132 16.87 18.07C17.0178 18.0349 17.1594 17.9776 17.29 17.9C17.3921 17.8378 17.4778 17.7521 17.54 17.65C17.6016 17.5338 17.6286 17.4023 17.618 17.2712C17.6074 17.1401 17.5595 17.0148 17.48 16.91C17.3868 16.7775 17.2677 16.6652 17.13 16.58C16.964 16.4623 16.7864 16.3618 16.6 16.28L15.93 16C15.4002 15.7805 14.9305 15.4377 14.56 15C14.2506 14.627 14.0871 14.1544 14.1 13.67C14.0883 13.302 14.171 12.9371 14.34 12.61C14.5016 12.3251 14.7276 12.082 15 11.9C15.304 11.6984 15.6432 11.5559 16 11.48C16.39 11.3892 16.7896 11.3455 17.19 11.35C17.5546 11.3449 17.919 11.3683 18.28 11.42C18.5803 11.4667 18.8752 11.5438 19.16 11.65V13.3C19.0284 13.2061 18.8877 13.1257 18.74 13.06C18.5805 12.9928 18.4168 12.936 18.25 12.89C18.0897 12.8431 17.9258 12.8096 17.76 12.79C17.607 12.7759 17.453 12.7759 17.3 12.79C17.1116 12.787 16.9235 12.8071 16.74 12.85C16.5893 12.881 16.4443 12.9349 16.31 13.01C16.2054 13.0725 16.1165 13.158 16.05 13.26C15.9901 13.3596 15.959 13.4738 15.96 13.59C15.9563 13.7142 15.9912 13.8365 16.06 13.94C16.1423 14.0534 16.2438 14.1516 16.36 14.23C16.5013 14.3418 16.6558 14.4359 16.82 14.51L17.45 14.79C17.7391 14.911 18.0197 15.0514 18.29 15.21C18.5267 15.3404 18.7424 15.5056 18.93 15.7C19.1131 15.8778 19.2563 16.0926 19.35 16.33C19.4455 16.6031 19.4929 16.8907 19.49 17.18C19.4823 17.5534 19.3971 17.9212 19.24 18.26V18.28Z" fill="white"/>
</svg>
