<svg width="738" height="449" viewBox="0 0 738 449" fill="none" xmlns="http://www.w3.org/2000/svg">
<g clip-path="url(#clip0_739_210)">
<path d="M738 0H0V449H738V0Z" fill="#F2FFFE"/>
<path d="M115.52 186H108.272V157.776H98.96V151.728H124.832V157.776H115.52V186ZM152.158 159.792V186H146.686L145.726 182.64H145.342C144.798 183.536 144.094 184.272 143.23 184.848C142.398 185.392 141.47 185.792 140.446 186.048C139.422 186.336 138.366 186.48 137.278 186.48C135.422 186.48 133.79 186.144 132.382 185.472C130.974 184.8 129.886 183.76 129.118 182.352C128.35 180.944 127.966 179.12 127.966 176.88V159.792H135.118V175.104C135.118 176.96 135.454 178.368 136.126 179.328C136.798 180.288 137.87 180.768 139.342 180.768C140.814 180.768 141.95 180.432 142.75 179.76C143.582 179.088 144.158 178.112 144.478 176.832C144.83 175.552 145.006 173.984 145.006 172.128V159.792H152.158ZM175.257 159.312C175.609 159.312 176.025 159.328 176.505 159.36C176.985 159.392 177.369 159.44 177.657 159.504L177.129 166.224C176.905 166.16 176.569 166.112 176.121 166.08C175.705 166.016 175.337 165.984 175.017 165.984C174.089 165.984 173.193 166.112 172.329 166.368C171.465 166.592 170.681 166.96 169.977 167.472C169.305 167.984 168.761 168.672 168.345 169.536C167.961 170.368 167.769 171.408 167.769 172.656V186H160.617V159.792H166.041L167.097 164.208H167.433C167.945 163.312 168.585 162.496 169.353 161.76C170.121 161.024 171.001 160.432 171.993 159.984C173.017 159.536 174.105 159.312 175.257 159.312ZM198.254 159.312C201.07 159.312 203.326 160.08 205.022 161.616C206.718 163.12 207.566 165.552 207.566 168.912V186H200.414V170.688C200.414 168.8 200.078 167.392 199.406 166.464C198.734 165.504 197.662 165.024 196.19 165.024C194.014 165.024 192.526 165.776 191.726 167.28C190.926 168.752 190.526 170.88 190.526 173.664V186H183.374V159.792H188.846L189.806 163.152H190.19C190.766 162.256 191.47 161.536 192.302 160.992C193.134 160.416 194.062 160 195.086 159.744C196.11 159.456 197.166 159.312 198.254 159.312ZM227.342 186L234.59 151.728H243.038C247.166 151.728 250.398 152.848 252.734 155.088C255.07 157.328 256.238 160.704 256.238 165.216C256.238 167.648 255.95 169.936 255.374 172.08C254.83 174.192 254.014 176.112 252.926 177.84C251.838 179.536 250.494 180.992 248.894 182.208C247.294 183.424 245.438 184.368 243.326 185.04C241.246 185.68 238.942 186 236.414 186H227.342ZM236.654 181.632C238.51 181.632 240.19 181.36 241.694 180.816C243.23 180.24 244.558 179.456 245.678 178.464C246.83 177.472 247.79 176.304 248.558 174.96C249.326 173.584 249.902 172.08 250.286 170.448C250.702 168.816 250.91 167.088 250.91 165.264C250.91 162.032 250.142 159.696 248.606 158.256C247.07 156.816 245.022 156.096 242.462 156.096H238.766L233.342 181.632H236.654ZM272.938 186.48C270.954 186.48 269.242 186.096 267.802 185.328C266.362 184.56 265.258 183.44 264.49 181.968C263.722 180.496 263.338 178.72 263.338 176.64C263.338 174.56 263.626 172.512 264.202 170.496C264.81 168.48 265.69 166.656 266.842 165.024C267.994 163.392 269.402 162.096 271.066 161.136C272.73 160.144 274.618 159.648 276.73 159.648C279.29 159.648 281.226 160.224 282.538 161.376C283.85 162.496 284.506 164.032 284.506 165.984C284.506 167.264 284.202 168.464 283.594 169.584C283.018 170.704 282.106 171.68 280.858 172.512C279.642 173.312 278.09 173.936 276.202 174.384C274.314 174.832 272.058 175.056 269.434 175.056H268.522C268.49 175.344 268.458 175.616 268.426 175.872C268.426 176.128 268.426 176.368 268.426 176.592C268.426 178.384 268.89 179.808 269.818 180.864C270.746 181.92 272.106 182.448 273.898 182.448C275.178 182.448 276.362 182.272 277.45 181.92C278.538 181.568 279.77 181.072 281.146 180.432V184.56C279.866 185.136 278.602 185.6 277.354 185.952C276.138 186.304 274.666 186.48 272.938 186.48ZM269.722 171.264C271.61 171.264 273.29 171.088 274.762 170.736C276.266 170.384 277.434 169.84 278.266 169.104C279.13 168.368 279.562 167.424 279.562 166.272C279.562 165.472 279.306 164.832 278.794 164.352C278.282 163.872 277.498 163.632 276.442 163.632C275.45 163.632 274.474 163.936 273.514 164.544C272.554 165.152 271.69 166.032 270.922 167.184C270.186 168.304 269.61 169.664 269.194 171.264H269.722ZM296.92 186.48C295.32 186.48 293.928 186.336 292.744 186.048C291.56 185.76 290.488 185.376 289.528 184.896V180.432C290.456 180.976 291.544 181.456 292.792 181.872C294.072 182.288 295.368 182.496 296.68 182.496C297.8 182.496 298.76 182.352 299.56 182.064C300.36 181.744 300.968 181.312 301.384 180.768C301.832 180.224 302.056 179.568 302.056 178.8C302.056 178.224 301.928 177.728 301.672 177.312C301.448 176.896 301.032 176.464 300.424 176.016C299.816 175.536 298.952 174.992 297.832 174.384C296.68 173.712 295.704 173.04 294.904 172.368C294.104 171.696 293.496 170.96 293.08 170.16C292.664 169.328 292.456 168.368 292.456 167.28C292.456 165.68 292.824 164.32 293.56 163.2C294.296 162.08 295.352 161.216 296.728 160.608C298.104 159.968 299.72 159.648 301.576 159.648C303.112 159.648 304.552 159.824 305.896 160.176C307.272 160.528 308.488 160.992 309.544 161.568L307.912 165.408C307.048 164.992 306.104 164.608 305.08 164.256C304.056 163.904 302.904 163.728 301.624 163.728C300.408 163.728 299.416 164.016 298.648 164.592C297.912 165.136 297.544 165.888 297.544 166.848C297.544 167.36 297.656 167.824 297.88 168.24C298.104 168.624 298.504 169.04 299.08 169.488C299.688 169.904 300.52 170.416 301.576 171.024C302.664 171.632 303.624 172.256 304.456 172.896C305.32 173.536 305.992 174.288 306.472 175.152C306.952 175.984 307.192 177.008 307.192 178.224C307.192 180.016 306.776 181.536 305.944 182.784C305.112 184 303.912 184.928 302.344 185.568C300.808 186.176 299 186.48 296.92 186.48ZM315.08 186L320.6 160.128H325.64L320.12 186H315.08ZM324.344 156.144C323.576 156.144 322.936 155.952 322.424 155.568C321.944 155.152 321.704 154.528 321.704 153.696C321.704 153.056 321.832 152.496 322.088 152.016C322.344 151.504 322.712 151.104 323.192 150.816C323.672 150.496 324.248 150.336 324.92 150.336C325.72 150.336 326.344 150.544 326.792 150.96C327.272 151.344 327.512 151.92 327.512 152.688C327.512 153.744 327.208 154.592 326.6 155.232C325.992 155.84 325.24 156.144 324.344 156.144ZM339.154 197.52C337.49 197.52 336.002 197.36 334.69 197.04C333.378 196.752 332.21 196.368 331.186 195.888V191.328C331.858 191.68 332.61 192 333.442 192.288C334.274 192.608 335.17 192.864 336.13 193.056C337.09 193.248 338.034 193.344 338.962 193.344C340.85 193.344 342.386 192.896 343.57 192C344.786 191.104 345.634 189.632 346.114 187.584L346.498 186.048C346.626 185.6 346.754 185.104 346.882 184.56C347.01 184.016 347.154 183.488 347.314 182.976C347.474 182.432 347.602 181.984 347.698 181.632H347.506C346.802 182.496 346.05 183.296 345.25 184.032C344.482 184.768 343.618 185.36 342.658 185.808C341.698 186.256 340.626 186.48 339.442 186.48C338.098 186.48 336.898 186.16 335.842 185.52C334.786 184.848 333.954 183.84 333.346 182.496C332.738 181.152 332.434 179.488 332.434 177.504C332.434 175.68 332.61 173.904 332.962 172.176C333.346 170.416 333.89 168.784 334.594 167.28C335.33 165.776 336.194 164.464 337.186 163.344C338.21 162.192 339.362 161.296 340.642 160.656C341.922 159.984 343.33 159.648 344.866 159.648C346.018 159.648 347.01 159.84 347.842 160.224C348.674 160.608 349.378 161.12 349.954 161.76C350.53 162.4 351.026 163.12 351.442 163.92H351.634L353.122 160.128H357.01L351.202 187.248C350.658 189.744 349.842 191.744 348.754 193.248C347.666 194.752 346.322 195.84 344.722 196.512C343.122 197.184 341.266 197.52 339.154 197.52ZM341.458 182.304C342.162 182.304 342.85 182.128 343.522 181.776C344.194 181.424 344.834 180.928 345.442 180.288C346.082 179.616 346.658 178.848 347.17 177.984C347.714 177.12 348.178 176.192 348.562 175.2C348.946 174.176 349.234 173.12 349.426 172.032C349.65 170.912 349.762 169.808 349.762 168.72C349.762 167.248 349.426 166.064 348.754 165.168C348.082 164.272 346.994 163.824 345.49 163.824C344.562 163.824 343.698 164.08 342.898 164.592C342.098 165.104 341.362 165.808 340.69 166.704C340.05 167.6 339.49 168.624 339.01 169.776C338.562 170.928 338.21 172.16 337.954 173.472C337.698 174.784 337.57 176.112 337.57 177.456C337.57 179.088 337.906 180.304 338.578 181.104C339.25 181.904 340.21 182.304 341.458 182.304ZM362.578 186L368.146 160.032H372.37L371.842 164.832H371.938C372.546 163.936 373.25 163.088 374.05 162.288C374.882 161.488 375.826 160.832 376.882 160.32C377.97 159.808 379.17 159.552 380.482 159.552C381.89 159.552 383.09 159.824 384.082 160.368C385.106 160.912 385.874 161.696 386.386 162.72C386.898 163.712 387.154 164.912 387.154 166.32C387.154 167.024 387.09 167.76 386.962 168.528C386.866 169.264 386.754 169.952 386.626 170.592L383.314 186H378.034L381.442 170.064C381.57 169.392 381.666 168.816 381.73 168.336C381.826 167.856 381.874 167.392 381.874 166.944C381.874 165.952 381.618 165.2 381.106 164.688C380.594 164.176 379.826 163.92 378.802 163.92C377.746 163.92 376.658 164.32 375.538 165.12C374.418 165.92 373.394 167.136 372.466 168.768C371.538 170.368 370.786 172.432 370.21 174.96L367.858 186H362.578ZM108.896 224.792V251H101.744V224.792H108.896ZM105.344 214.52C106.4 214.52 107.312 214.776 108.08 215.288C108.848 215.768 109.232 216.68 109.232 218.024C109.232 219.336 108.848 220.248 108.08 220.76C107.312 221.272 106.4 221.528 105.344 221.528C104.256 221.528 103.328 221.272 102.56 220.76C101.824 220.248 101.456 219.336 101.456 218.024C101.456 216.68 101.824 215.768 102.56 215.288C103.328 214.776 104.256 214.52 105.344 214.52ZM132.209 224.312C135.025 224.312 137.281 225.08 138.977 226.616C140.673 228.12 141.521 230.552 141.521 233.912V251H134.369V235.688C134.369 233.8 134.033 232.392 133.361 231.464C132.689 230.504 131.617 230.024 130.145 230.024C127.969 230.024 126.481 230.776 125.681 232.28C124.881 233.752 124.481 235.88 124.481 238.664V251H117.329V224.792H122.801L123.761 228.152H124.145C124.721 227.256 125.425 226.536 126.257 225.992C127.089 225.416 128.017 225 129.041 224.744C130.065 224.456 131.121 224.312 132.209 224.312ZM160.876 245.768C161.676 245.768 162.444 245.688 163.18 245.528C163.916 245.368 164.652 245.176 165.388 244.952V250.28C164.62 250.6 163.66 250.872 162.508 251.096C161.388 251.352 160.156 251.48 158.812 251.48C157.244 251.48 155.836 251.224 154.588 250.712C153.372 250.2 152.396 249.32 151.66 248.072C150.956 246.792 150.604 245.032 150.604 242.792V230.168H147.196V227.144L151.132 224.744L153.196 219.224H157.756V224.792H165.1V230.168H157.756V242.792C157.756 243.784 158.044 244.536 158.62 245.048C159.196 245.528 159.948 245.768 160.876 245.768ZM229.492 251H222.244V222.776H212.932V216.728H238.804V222.776H229.492V251ZM251.898 224.312C254.33 224.312 256.41 224.776 258.138 225.704C259.898 226.632 261.258 227.976 262.218 229.736C263.178 231.496 263.658 233.656 263.658 236.216V239.672H246.762C246.826 241.688 247.418 243.272 248.538 244.424C249.69 245.576 251.274 246.152 253.29 246.152C254.986 246.152 256.522 245.992 257.898 245.672C259.274 245.32 260.698 244.792 262.17 244.088V249.608C260.89 250.248 259.53 250.712 258.09 251C256.682 251.32 254.97 251.48 252.954 251.48C250.33 251.48 248.01 251 245.994 250.04C243.978 249.048 242.394 247.56 241.242 245.576C240.09 243.592 239.514 241.096 239.514 238.088C239.514 235.016 240.026 232.472 241.05 230.456C242.106 228.408 243.562 226.872 245.418 225.848C247.274 224.824 249.434 224.312 251.898 224.312ZM251.946 229.4C250.57 229.4 249.418 229.848 248.49 230.744C247.594 231.64 247.066 233.032 246.906 234.92H256.938C256.938 233.864 256.746 232.92 256.362 232.088C256.01 231.256 255.466 230.6 254.73 230.12C253.994 229.64 253.066 229.4 251.946 229.4ZM281.073 251.48C278.481 251.48 276.273 251.016 274.449 250.088C272.625 249.128 271.233 247.656 270.273 245.672C269.313 243.688 268.833 241.144 268.833 238.04C268.833 234.84 269.377 232.232 270.465 230.216C271.553 228.2 273.057 226.712 274.977 225.752C276.929 224.792 279.169 224.312 281.697 224.312C283.489 224.312 285.041 224.488 286.353 224.84C287.697 225.192 288.865 225.608 289.857 226.088L287.745 231.608C286.625 231.16 285.569 230.792 284.577 230.504C283.617 230.216 282.657 230.072 281.697 230.072C280.449 230.072 279.409 230.376 278.577 230.984C277.745 231.56 277.121 232.44 276.705 233.624C276.321 234.776 276.129 236.232 276.129 237.992C276.129 239.72 276.337 241.16 276.753 242.312C277.201 243.432 277.841 244.28 278.673 244.856C279.505 245.4 280.513 245.672 281.697 245.672C283.201 245.672 284.529 245.48 285.681 245.096C286.833 244.68 287.953 244.12 289.041 243.416V249.512C287.953 250.216 286.801 250.712 285.585 251C284.401 251.32 282.897 251.48 281.073 251.48ZM303.185 221.96C303.185 223.24 303.137 224.472 303.041 225.656C302.977 226.84 302.913 227.672 302.849 228.152H303.233C303.809 227.256 304.481 226.536 305.249 225.992C306.017 225.416 306.865 225 307.793 224.744C308.753 224.456 309.761 224.312 310.817 224.312C312.705 224.312 314.353 224.648 315.761 225.32C317.169 225.992 318.257 227.032 319.025 228.44C319.825 229.848 320.225 231.672 320.225 233.912V251H313.073V235.688C313.073 233.8 312.721 232.392 312.017 231.464C311.345 230.504 310.289 230.024 308.849 230.024C307.409 230.024 306.273 230.36 305.441 231.032C304.641 231.704 304.065 232.68 303.713 233.96C303.361 235.24 303.185 236.808 303.185 238.664V251H296.033V214.52H303.185V221.96ZM327.532 247.64C327.532 246.168 327.932 245.144 328.732 244.568C329.532 243.96 330.508 243.656 331.66 243.656C332.78 243.656 333.74 243.96 334.54 244.568C335.34 245.144 335.74 246.168 335.74 247.64C335.74 249.048 335.34 250.072 334.54 250.712C333.74 251.32 332.78 251.624 331.66 251.624C330.508 251.624 329.532 251.32 328.732 250.712C327.932 250.072 327.532 249.048 327.532 247.64Z" fill="#262626"/>
<path d="M195.416 237.848C195.416 240.024 195.112 241.96 194.504 243.656C193.928 245.352 193.08 246.792 191.96 247.976C190.872 249.128 189.544 250.008 187.976 250.616C186.408 251.192 184.632 251.48 182.648 251.48C180.824 251.48 179.128 251.192 177.56 250.616C176.024 250.008 174.696 249.128 173.576 247.976C172.456 246.792 171.576 245.352 170.936 243.656C170.328 241.96 170.024 240.024 170.024 237.848C170.024 234.936 170.536 232.488 171.56 230.504C172.584 228.488 174.056 226.952 175.976 225.896C177.896 224.84 180.168 224.312 182.792 224.312C185.256 224.312 187.432 224.84 189.32 225.896C191.208 226.952 192.696 228.488 193.784 230.504C194.872 232.488 195.416 234.936 195.416 237.848ZM177.32 237.848C177.32 239.576 177.496 241.032 177.848 242.216C178.232 243.368 178.824 244.248 179.624 244.856C180.424 245.432 181.464 245.72 182.744 245.72C184.024 245.72 185.048 245.432 185.816 244.856C186.616 244.248 187.192 243.368 187.544 242.216C187.928 241.032 188.12 239.576 188.12 237.848C188.12 236.12 187.928 234.68 187.544 233.528C187.192 232.376 186.616 231.512 185.816 230.936C185.016 230.36 183.976 230.072 182.696 230.072C180.808 230.072 179.432 230.728 178.568 232.04C177.736 233.32 177.32 235.256 177.32 237.848Z" fill="#0057BE"/>
<path d="M102.872 289.48C103.544 289.552 104.264 289.6 105.032 289.6C106.424 289.6 112.016 289.6 113.36 289.6C114.032 289.6 114.896 289.552 115.592 289.48V291.472C114.872 291.424 114.032 291.376 113.36 291.376C112.016 291.376 106.424 291.376 105.08 291.376C104.264 291.376 103.496 291.424 102.872 291.472V289.48ZM100.016 295.504C100.664 295.576 101.36 295.624 102.104 295.624C103.496 295.624 116.528 295.624 117.8 295.624C118.304 295.624 119.096 295.576 119.696 295.504V297.496C119.168 297.448 118.4 297.424 117.8 297.424C116.528 297.424 103.496 297.424 102.104 297.424C101.384 297.424 100.664 297.448 100.016 297.496V295.504ZM111.32 296.464C111.32 299.488 110.936 301.984 109.88 304C108.992 305.608 107.192 307.336 105.152 308.368L103.376 307.072C105.224 306.28 106.952 304.912 107.912 303.376C109.112 301.48 109.28 299.128 109.304 296.488L111.32 296.464ZM116.84 287.512C117.44 288.376 118.304 289.84 118.784 290.8L117.488 291.376C117.032 290.416 116.216 288.976 115.568 288.064L116.84 287.512ZM119.456 286.552C120.104 287.44 121.016 288.928 121.472 289.816L120.2 290.392C119.672 289.36 118.88 287.992 118.208 287.104L119.456 286.552ZM144.704 288.712C145.16 289.576 145.784 291.064 146.12 292.024L144.92 292.432C144.584 291.424 144.032 289.984 143.552 289.072L144.704 288.712ZM147.104 287.968C147.56 288.856 148.184 290.32 148.544 291.28L147.344 291.688C146.96 290.608 146.432 289.24 145.928 288.328L147.104 287.968ZM142.424 296.416C142.424 302.8 141.056 306.088 135.584 308.536L133.952 307.024C138.32 305.344 140.504 303.28 140.504 296.56V290.728C140.504 289.792 140.432 289 140.384 288.76H142.544C142.52 289 142.424 289.792 142.424 290.728V296.416ZM133.784 288.928C133.76 289.144 133.664 289.816 133.664 290.656V299.464C133.664 300.328 133.736 301.384 133.76 301.624H131.648C131.672 301.384 131.744 300.376 131.744 299.464V290.656C131.744 290.152 131.72 289.456 131.648 288.928H133.784ZM126.752 293.584C126.968 293.608 128.144 293.728 129.176 293.728H145.064C146.12 293.728 146.936 293.656 147.272 293.608V295.648C147.008 295.6 146.12 295.576 145.064 295.576H129.176C128.12 295.576 127.04 295.624 126.752 295.648V293.584ZM155.264 298.336C159.416 297.232 163.064 295.528 165.728 293.872C168.248 292.288 170.648 290.224 172.304 288.208L173.912 289.72C171.848 291.856 169.328 293.872 166.52 295.624C163.88 297.256 160.064 299.008 156.2 300.208L155.264 298.336ZM165.344 294.856L167.408 294.232V305.2C167.408 306.088 167.456 307.288 167.576 307.744H165.2C165.272 307.288 165.344 306.088 165.344 305.2V294.856ZM186.248 289.432C187.928 290.56 191.024 293.056 192.344 294.376L190.856 295.912C189.632 294.664 186.656 292.072 184.856 290.896L186.248 289.432ZM184.184 305.512C188.36 304.888 191.48 303.424 193.76 302.008C197.48 299.68 200.384 296.128 201.776 293.152L202.928 295.216C201.296 298.192 198.512 301.456 194.888 303.736C192.464 305.248 189.44 306.736 185.432 307.48L184.184 305.512ZM219.44 288.04C219.224 288.976 218.96 290.296 218.336 291.904C217.736 293.368 216.848 294.976 215.888 296.224C216.824 295.672 218.192 295.336 219.248 295.336C221.096 295.336 222.536 296.44 222.536 298.384C222.536 299.632 222.584 302.392 222.608 303.88H220.76C220.856 302.608 220.88 300.136 220.856 298.888C220.832 297.496 219.872 296.848 218.624 296.848C217.088 296.848 215.576 297.616 214.472 298.6C213.776 299.272 213.104 300.136 212.312 301.12L210.656 299.896C214.112 296.584 215.72 293.8 216.536 291.76C217.064 290.44 217.4 289 217.472 287.872L219.44 288.04ZM211.208 290.632C212.504 290.8 214.16 290.872 215.264 290.872C218.504 290.872 222.656 290.68 226.04 290.08V291.856C222.68 292.36 218.216 292.576 215.168 292.576C214.136 292.576 212.552 292.528 211.208 292.432V290.632ZM229.544 296.416C228.944 296.608 228.08 296.944 227.432 297.184C225.728 297.856 223.448 298.768 221.12 299.968C218.744 301.216 217.064 302.512 217.064 304.168C217.064 306.04 218.912 306.328 221.384 306.328C223.256 306.328 225.848 306.112 227.96 305.728L227.888 307.672C226.064 307.888 223.4 308.08 221.312 308.08C217.904 308.08 215.144 307.336 215.144 304.432C215.144 301.504 218.12 299.704 220.976 298.24C223.256 297.064 225.2 296.32 226.784 295.576C227.504 295.24 228.104 294.976 228.776 294.64L229.544 296.416ZM241.136 289.264C241.832 289.336 242.528 289.384 243.32 289.384C244.712 289.384 251.696 289.384 253.04 289.384C253.712 289.384 254.576 289.336 255.272 289.264V291.256C254.552 291.208 253.712 291.16 253.04 291.16C251.696 291.16 244.712 291.16 243.344 291.16C242.552 291.16 241.76 291.208 241.136 291.256V289.264ZM238.28 295.288C238.928 295.36 239.624 295.384 240.368 295.384C241.76 295.384 254.792 295.384 256.064 295.384C256.568 295.384 257.36 295.36 257.96 295.288V297.256C257.408 297.232 256.664 297.208 256.064 297.208C254.792 297.208 241.76 297.208 240.368 297.208C239.648 297.208 238.928 297.232 238.28 297.28V295.288ZM249.584 296.248C249.584 299.272 249.2 301.768 248.12 303.784C247.256 305.392 245.432 307.096 243.416 308.152L241.64 306.856C243.488 306.064 245.216 304.696 246.152 303.16C247.352 301.264 247.544 298.912 247.568 296.272L249.584 296.248ZM284.504 292C284.312 292.336 284.072 292.888 283.952 293.272C283.304 295.696 281.84 298.936 279.704 301.552C277.52 304.216 274.64 306.4 270.152 308.08L268.4 306.496C272.816 305.2 275.792 303.04 278 300.472C279.848 298.288 281.336 295.168 281.816 292.984H272.936L273.704 291.256C274.664 291.256 280.592 291.256 281.336 291.256C281.984 291.256 282.536 291.184 282.92 291.04L284.504 292ZM276.464 288.376C276.08 289 275.648 289.816 275.408 290.248C273.992 292.912 271.496 296.344 267.632 298.888L265.952 297.664C270.104 295.192 272.456 291.688 273.512 289.552C273.752 289.12 274.112 288.256 274.256 287.632L276.464 288.376ZM308.994 289.744C308.73 290.392 308.442 291.256 308.226 291.856C307.314 294.448 305.874 297.976 303.834 300.568C301.674 303.328 298.242 305.992 294.786 307.408L293.106 305.68C296.706 304.432 300.018 302.008 302.202 299.296C304.41 296.512 306.042 292.576 306.714 289.144L308.994 289.744ZM320.874 290.56C321.81 290.608 322.434 290.608 323.01 290.608C324.282 290.608 334.722 290.608 335.898 290.608C336.402 290.608 337.266 290.608 338.01 290.584C337.962 291.16 337.962 291.832 337.962 292.432C337.962 293.56 337.962 303.352 337.962 304.264C337.962 305.032 337.986 306.904 338.01 307.168H335.922C335.946 306.904 335.97 305.536 335.97 304.528C335.97 303.64 335.97 292.504 335.97 292.504H322.866C322.866 292.504 322.866 303.544 322.866 304.528C322.866 305.32 322.89 306.856 322.89 307.168H320.85C320.85 306.856 320.898 305.104 320.898 304.264C320.898 303.28 320.898 293.368 320.898 292.432C320.898 291.88 320.898 291.16 320.874 290.56ZM336.762 303.928V305.8H321.906V303.928H336.762ZM362.154 289.096C362.754 289.984 363.834 291.688 364.386 292.84L363.018 293.464C362.418 292.192 361.602 290.752 360.81 289.672L362.154 289.096ZM365.274 287.944C365.922 288.784 367.002 290.512 367.578 291.616L366.21 292.24C365.586 290.992 364.746 289.6 363.954 288.544L365.274 287.944ZM351.882 288.736C353.298 289.528 356.058 291.376 357.114 292.144L355.962 293.776C354.834 292.912 352.218 291.16 350.802 290.368L351.882 288.736ZM348.282 305.896C350.922 305.44 353.898 304.504 356.346 303.112C360.33 300.832 363.474 297.712 365.418 294.328L366.594 296.296C364.506 299.512 361.194 302.632 357.354 304.864C354.93 306.28 351.618 307.408 349.41 307.864L348.282 305.896ZM348.282 294.136C349.698 294.904 352.506 296.632 353.538 297.376L352.434 299.056C351.258 298.216 348.666 296.536 347.202 295.792L348.282 294.136ZM374.994 296.608C375.738 296.68 376.986 296.752 378.354 296.752C380.106 296.752 389.73 296.752 391.506 296.752C392.706 296.752 393.546 296.656 394.098 296.608V298.96C393.594 298.936 392.586 298.864 391.53 298.864C389.706 298.864 380.13 298.864 378.354 298.864C377.034 298.864 375.762 298.912 374.994 298.96V296.608ZM411.09 290.8C413.706 291.256 418.578 291.16 420.954 290.8V292.744C418.386 293.032 413.73 293.032 411.114 292.744L411.09 290.8ZM412.026 300.592C411.81 301.456 411.69 302.128 411.69 302.776C411.69 303.88 412.458 304.96 415.746 304.96C417.882 304.96 419.754 304.768 421.674 304.312L421.722 306.328C420.234 306.64 418.218 306.832 415.722 306.832C411.714 306.832 409.914 305.488 409.914 303.232C409.914 302.44 410.034 301.576 410.298 300.424L412.026 300.592ZM406.53 288.952C406.386 289.36 406.194 290.128 406.098 290.56C405.642 292.792 404.898 297.064 404.898 299.776C404.898 300.928 404.97 301.936 405.114 303.112C405.522 302.032 406.074 300.592 406.482 299.608L407.49 300.4C406.89 302.104 406.002 304.624 405.786 305.776C405.714 306.112 405.666 306.568 405.666 306.856C405.69 307.096 405.714 307.432 405.738 307.696L404.034 307.816C403.554 306.112 403.146 303.352 403.146 300.088C403.146 296.56 403.938 292.456 404.226 290.464C404.298 289.912 404.37 289.312 404.394 288.784L406.53 288.952ZM432.426 301.168C434.442 301.168 436.074 302.8 436.074 304.816C436.074 306.832 434.442 308.464 432.426 308.464C430.41 308.464 428.754 306.832 428.754 304.816C428.754 302.8 430.41 301.168 432.426 301.168ZM432.426 307.24C433.77 307.24 434.85 306.16 434.85 304.816C434.85 303.472 433.77 302.392 432.426 302.392C431.082 302.392 429.978 303.472 429.978 304.816C429.978 306.16 431.082 307.24 432.426 307.24Z" fill="#707070"/>
</g>
<defs>
<clipPath id="clip0_739_210">
<rect width="738" height="449" fill="white"/>
</clipPath>
</defs>
</svg>
