<svg width="588" height="386" viewBox="0 0 588 386" fill="none" xmlns="http://www.w3.org/2000/svg">
<g clip-path="url(#clip0_739_238)">
<path d="M588 0H0V386H588V0Z" fill="white"/>
<g filter="url(#filter0_d_739_238)">
<path d="M88.534 190.306L108.165 183.161L115.306 163.534C115.47 163.084 115.768 162.696 116.16 162.422C116.552 162.147 117.019 162 117.498 162C117.976 162 118.443 162.147 118.835 162.422C119.227 162.696 119.525 163.084 119.689 163.534L126.835 183.165L146.466 190.306C146.916 190.47 147.304 190.768 147.578 191.16C147.853 191.552 148 192.019 148 192.498C148 192.976 147.853 193.443 147.578 193.835C147.304 194.227 146.916 194.525 146.466 194.689L126.83 201.835L119.689 221.466C119.525 221.916 119.227 222.304 118.835 222.578C118.443 222.853 117.976 223 117.498 223C117.019 223 116.552 222.853 116.16 222.578C115.768 222.304 115.47 221.916 115.306 221.466L108.161 201.83L88.534 194.689C88.0844 194.525 87.696 194.227 87.4216 193.835C87.1472 193.443 87 192.976 87 192.498C87 192.019 87.1472 191.552 87.4216 191.16C87.696 190.768 88.0844 190.47 88.534 190.306Z" fill="url(#paint0_linear_739_238)" fill-opacity="0.7"/>
</g>
<path d="M163.945 193V158.734H173.203V185.523H186.398V193H163.945ZM219.572 166.445V193H212.658L211.509 189.695H210.97C210.423 190.586 209.728 191.312 208.884 191.875C208.056 192.422 207.134 192.82 206.119 193.07C205.103 193.336 204.048 193.469 202.955 193.469C201.22 193.469 199.65 193.133 198.244 192.461C196.853 191.789 195.744 190.734 194.916 189.297C194.103 187.859 193.697 186.008 193.697 183.742V166.445H202.861V180.953C202.861 182.672 203.103 183.984 203.587 184.891C204.087 185.781 204.9 186.227 206.025 186.227C207.181 186.227 208.072 185.914 208.697 185.289C209.337 184.664 209.783 183.742 210.033 182.523C210.283 181.305 210.408 179.82 210.408 178.07V166.445H219.572ZM260.714 165.977C263.745 165.977 266.058 166.75 267.652 168.297C269.261 169.844 270.066 172.32 270.066 175.727V193H260.902V178.562C260.902 176.547 260.628 175.148 260.081 174.367C259.55 173.57 258.753 173.172 257.691 173.172C256.206 173.172 255.175 173.82 254.597 175.117C254.034 176.414 253.753 178.25 253.753 180.625V193H244.566V178.562C244.566 177.281 244.448 176.25 244.214 175.469C243.995 174.672 243.659 174.094 243.206 173.734C242.753 173.359 242.183 173.172 241.495 173.172C240.448 173.172 239.628 173.492 239.034 174.133C238.456 174.758 238.05 175.68 237.816 176.898C237.581 178.117 237.464 179.609 237.464 181.375V193H228.3V166.445H235.214L236.55 169.727H236.808C237.277 169.008 237.878 168.367 238.613 167.805C239.363 167.242 240.245 166.797 241.261 166.469C242.292 166.141 243.464 165.977 244.777 165.977C246.73 165.977 248.339 166.305 249.605 166.961C250.87 167.617 251.902 168.523 252.698 169.68H252.98C253.823 168.492 254.909 167.578 256.238 166.938C257.566 166.297 259.058 165.977 260.714 165.977ZM287.911 166.445V193H278.747V166.445H287.911ZM283.364 155.758C284.677 155.758 285.817 156.031 286.786 156.578C287.77 157.125 288.262 158.211 288.262 159.836C288.262 161.414 287.77 162.484 286.786 163.047C285.817 163.594 284.677 163.867 283.364 163.867C282.02 163.867 280.872 163.594 279.919 163.047C278.981 162.484 278.512 161.414 278.512 159.836C278.512 158.211 278.981 157.125 279.919 156.578C280.872 156.031 282.02 155.758 283.364 155.758ZM313.327 165.977C316.061 165.977 318.295 166.75 320.03 168.297C321.764 169.844 322.631 172.32 322.631 175.727V193H313.467V178.516C313.467 176.75 313.209 175.422 312.694 174.531C312.194 173.625 311.381 173.172 310.256 173.172C308.522 173.172 307.358 173.883 306.764 175.305C306.17 176.711 305.873 178.734 305.873 181.375V193H296.709V166.445H303.623L304.866 169.961H305.217C305.78 169.117 306.452 168.398 307.233 167.805C308.014 167.211 308.913 166.758 309.928 166.445C310.944 166.133 312.077 165.977 313.327 165.977ZM340.477 166.445V193H331.312V166.445H340.477ZM335.93 155.758C337.242 155.758 338.383 156.031 339.352 156.578C340.336 157.125 340.828 158.211 340.828 159.836C340.828 161.414 340.336 162.484 339.352 163.047C338.383 163.594 337.242 163.867 335.93 163.867C334.586 163.867 333.438 163.594 332.484 163.047C331.547 162.484 331.078 161.414 331.078 159.836C331.078 158.211 331.547 157.125 332.484 156.578C333.438 156.031 334.586 155.758 335.93 155.758ZM372.22 182.594C372.22 184.453 371.752 186.219 370.814 187.891C369.877 189.547 368.416 190.891 366.431 191.922C364.462 192.953 361.916 193.469 358.791 193.469C357.228 193.469 355.853 193.398 354.666 193.258C353.494 193.117 352.4 192.891 351.384 192.578C350.369 192.25 349.314 191.828 348.22 191.312V183.062C350.08 184 351.955 184.719 353.845 185.219C355.736 185.703 357.447 185.945 358.978 185.945C359.9 185.945 360.65 185.836 361.228 185.617C361.822 185.398 362.259 185.102 362.541 184.727C362.822 184.336 362.962 183.891 362.962 183.391C362.962 182.797 362.752 182.297 362.33 181.891C361.923 181.469 361.267 181.031 360.361 180.578C359.455 180.125 358.259 179.562 356.775 178.891C355.509 178.297 354.361 177.688 353.33 177.062C352.314 176.438 351.439 175.727 350.705 174.93C349.986 174.117 349.431 173.172 349.041 172.094C348.65 171.016 348.455 169.742 348.455 168.273C348.455 166.07 348.994 164.227 350.072 162.742C351.166 161.242 352.681 160.117 354.619 159.367C356.572 158.617 358.822 158.242 361.369 158.242C363.603 158.242 365.611 158.492 367.392 158.992C369.189 159.492 370.798 160.062 372.22 160.703L369.384 167.852C367.916 167.18 366.47 166.648 365.048 166.258C363.627 165.852 362.306 165.648 361.087 165.648C360.291 165.648 359.634 165.75 359.119 165.953C358.619 166.141 358.244 166.398 357.994 166.727C357.759 167.055 357.642 167.43 357.642 167.852C357.642 168.383 357.845 168.859 358.252 169.281C358.673 169.703 359.369 170.164 360.337 170.664C361.322 171.148 362.658 171.781 364.345 172.562C366.017 173.312 367.439 174.125 368.611 175C369.783 175.859 370.673 176.898 371.283 178.117C371.908 179.32 372.22 180.812 372.22 182.594ZM391.472 193.469C388.784 193.469 386.448 192.992 384.464 192.039C382.48 191.07 380.941 189.586 379.847 187.586C378.769 185.57 378.23 182.992 378.23 179.852C378.23 176.633 378.831 174 380.034 171.953C381.253 169.906 382.917 168.398 385.027 167.43C387.136 166.461 389.527 165.977 392.198 165.977C393.823 165.977 395.363 166.156 396.816 166.516C398.284 166.875 399.644 167.367 400.894 167.992L398.198 174.766C397.105 174.281 396.081 173.898 395.128 173.617C394.191 173.32 393.214 173.172 392.198 173.172C391.277 173.172 390.464 173.414 389.761 173.898C389.058 174.383 388.511 175.117 388.12 176.102C387.73 177.07 387.534 178.305 387.534 179.805C387.534 181.336 387.73 182.57 388.12 183.508C388.527 184.445 389.081 185.125 389.784 185.547C390.503 185.969 391.323 186.18 392.245 186.18C393.573 186.18 394.894 185.977 396.206 185.57C397.534 185.148 398.792 184.57 399.98 183.836V191.125C398.886 191.844 397.652 192.414 396.277 192.836C394.902 193.258 393.3 193.469 391.472 193.469ZM420.614 165.977C423.973 165.977 426.598 166.812 428.489 168.484C430.38 170.141 431.325 172.508 431.325 175.586V193H424.973L423.216 189.484H423.028C422.278 190.422 421.505 191.188 420.708 191.781C419.927 192.359 419.028 192.781 418.012 193.047C416.997 193.328 415.755 193.469 414.286 193.469C412.755 193.469 411.38 193.156 410.161 192.531C408.942 191.906 407.981 190.961 407.278 189.695C406.575 188.43 406.223 186.828 406.223 184.891C406.223 182.047 407.208 179.938 409.177 178.562C411.145 177.188 413.997 176.414 417.731 176.242L422.161 176.102V175.727C422.161 174.539 421.864 173.695 421.27 173.195C420.692 172.695 419.911 172.445 418.927 172.445C417.88 172.445 416.708 172.633 415.411 173.008C414.13 173.367 412.841 173.836 411.544 174.414L408.895 168.367C410.427 167.586 412.161 166.992 414.098 166.586C416.036 166.18 418.208 165.977 420.614 165.977ZM422.208 181.141L420.098 181.234C418.411 181.297 417.223 181.594 416.536 182.125C415.864 182.641 415.528 183.383 415.528 184.352C415.528 185.258 415.77 185.93 416.255 186.367C416.739 186.789 417.38 187 418.177 187C419.286 187 420.231 186.648 421.012 185.945C421.809 185.242 422.208 184.328 422.208 183.203V181.141ZM456.178 165.977C459.116 165.977 461.42 167.156 463.092 169.516C464.764 171.859 465.6 175.242 465.6 179.664C465.6 182.68 465.178 185.219 464.334 187.281C463.491 189.328 462.334 190.875 460.866 191.922C459.413 192.953 457.756 193.469 455.897 193.469C454.647 193.469 453.584 193.312 452.709 193C451.85 192.688 451.131 192.297 450.553 191.828C449.991 191.359 449.514 190.883 449.123 190.398H448.842C448.92 191.008 448.983 191.664 449.03 192.367C449.092 193.07 449.123 193.891 449.123 194.828V204.531H439.959V166.445H447.413L448.702 169.82H449.123C449.561 169.133 450.092 168.5 450.717 167.922C451.342 167.328 452.1 166.859 452.991 166.516C453.897 166.156 454.959 165.977 456.178 165.977ZM452.733 173.172C451.842 173.172 451.139 173.383 450.623 173.805C450.108 174.227 449.733 174.867 449.498 175.727C449.28 176.57 449.155 177.625 449.123 178.891V179.617C449.123 181.023 449.233 182.211 449.452 183.18C449.67 184.133 450.045 184.859 450.577 185.359C451.108 185.844 451.842 186.086 452.78 186.086C453.545 186.086 454.186 185.867 454.702 185.43C455.217 184.992 455.608 184.297 455.873 183.344C456.139 182.391 456.272 181.133 456.272 179.57C456.272 177.242 455.967 175.594 455.358 174.625C454.764 173.656 453.889 173.172 452.733 173.172ZM485.203 165.977C487.781 165.977 490.008 166.43 491.883 167.336C493.758 168.227 495.203 169.57 496.219 171.367C497.234 173.164 497.742 175.414 497.742 178.117V182.195H481.359C481.438 183.586 481.953 184.727 482.906 185.617C483.875 186.508 485.297 186.953 487.172 186.953C488.828 186.953 490.344 186.789 491.719 186.461C493.109 186.133 494.539 185.625 496.008 184.938V191.523C494.727 192.195 493.328 192.688 491.812 193C490.297 193.312 488.383 193.469 486.07 193.469C483.398 193.469 481.008 192.992 478.898 192.039C476.789 191.086 475.125 189.609 473.906 187.609C472.703 185.609 472.102 183.039 472.102 179.898C472.102 176.711 472.648 174.094 473.742 172.047C474.836 169.984 476.367 168.461 478.336 167.477C480.305 166.477 482.594 165.977 485.203 165.977ZM485.531 172.211C484.453 172.211 483.547 172.555 482.812 173.242C482.094 173.914 481.672 174.977 481.547 176.43H489.422C489.406 175.648 489.25 174.938 488.953 174.297C488.656 173.656 488.219 173.148 487.641 172.773C487.078 172.398 486.375 172.211 485.531 172.211Z" fill="#404040"/>
<path d="M284.37 234.296C284.53 233.688 284.626 232.824 284.626 231.96C284.626 230.264 284.626 215.896 284.626 213.304C284.626 211.864 284.402 210.616 284.402 210.552H289.138C289.138 210.616 288.914 211.896 288.914 213.336C288.914 215.896 288.914 228.088 288.914 230.04C291.538 228.92 294.674 226.392 296.85 223.288L299.282 226.84C296.626 230.296 292.05 233.752 288.434 235.576C287.762 235.928 287.378 236.28 287.058 236.504L284.37 234.296ZM269.554 233.848C272.402 231.864 274.13 228.92 274.994 226.168C275.922 223.448 275.954 217.368 275.954 213.528C275.954 212.216 275.826 211.384 275.634 210.584H280.338C280.338 210.712 280.114 212.152 280.114 213.464C280.114 217.272 280.018 224.024 279.186 227.256C278.194 230.84 276.21 234.008 273.458 236.44L269.554 233.848ZM310.994 209.944C315.218 210.456 324.434 212.344 328.466 213.752L326.834 217.72C323.09 216.344 314.034 214.328 309.522 213.752L310.994 209.944ZM309.554 218.552C314.13 219.32 322.258 221.08 326.258 222.456L324.69 226.456C321.042 225.048 312.818 223.192 308.05 222.424L309.554 218.552ZM307.89 227.736C313.394 228.568 323.218 230.872 327.634 232.504L325.874 236.504C321.554 234.744 311.41 232.536 306.29 231.736L307.89 227.736ZM340.914 213.272C342.098 213.4 343.57 213.464 344.69 213.464C347.378 213.464 356.178 213.464 357.938 213.464C359.218 213.464 360.562 213.4 361.49 213.272V217.912C360.562 217.88 359.058 217.816 357.938 217.816C356.242 217.816 346.482 217.816 344.69 217.816C343.474 217.816 342.002 217.88 340.914 217.912V213.272ZM338.226 228.952C339.474 229.016 340.978 229.144 342.258 229.144C344.274 229.144 358.61 229.144 360.626 229.144C361.682 229.144 363.058 229.048 364.146 228.952V233.848C362.994 233.72 361.554 233.624 360.626 233.624C358.61 233.624 344.274 233.624 342.258 233.624C340.978 233.624 339.442 233.72 338.226 233.848V228.952ZM395.762 213.336C395.506 213.688 394.93 214.648 394.642 215.32C393.33 218.36 390.962 222.712 388.21 225.912C384.626 230.04 379.794 234.008 374.834 236.344L371.506 232.888C376.69 230.968 381.618 227.064 384.626 223.736C386.738 221.336 388.69 218.168 389.426 215.896C388.082 215.896 379.922 215.896 378.546 215.896C377.234 215.896 375.474 216.056 374.77 216.12V211.544C375.634 211.672 377.618 211.768 378.546 211.768C380.242 211.768 388.434 211.768 389.842 211.768C391.25 211.768 392.498 211.608 393.17 211.384L395.762 213.336ZM388.626 223.256C391.922 225.944 396.466 230.712 398.546 233.272L394.898 236.44C392.53 233.144 389.042 229.336 385.618 226.232L388.626 223.256ZM417.042 209.944C416.69 210.776 416.274 211.864 415.986 212.568C415.442 214.168 414.45 216.536 413.618 218.168C412.338 220.696 410.162 223.768 408.05 225.656L404.018 223.224C406.322 221.528 408.37 218.648 409.586 216.632C410.45 215.16 411.058 213.464 411.442 212.248C411.794 211.192 412.05 209.976 412.114 208.984L417.042 209.944ZM411.986 214.904C414.546 214.904 426.706 214.904 428.914 214.904C429.714 214.904 431.186 214.84 432.242 214.68V219.032C431.026 218.936 429.65 218.936 428.914 218.936C426.674 218.936 414.546 218.936 411.666 218.936L411.986 214.904ZM424.498 217.208C424.274 226.648 420.914 232.888 414.738 236.76L410.418 233.88C411.57 233.4 412.69 232.76 413.426 232.12C417.074 229.336 419.922 224.92 420.05 217.208H424.498ZM439.218 220.184C440.402 220.28 442.706 220.408 444.37 220.408C448.146 220.408 458.706 220.408 461.554 220.408C463.058 220.408 464.466 220.248 465.33 220.184V225.24C464.562 225.208 462.93 225.048 461.586 225.048C458.674 225.048 448.146 225.048 444.37 225.048C442.578 225.048 440.434 225.144 439.218 225.24V220.184ZM493.696 211.544C493.696 212.568 494.528 213.4 495.552 213.4C496.576 213.4 497.408 212.568 497.408 211.544C497.408 210.52 496.576 209.688 495.552 209.688C494.528 209.688 493.696 210.52 493.696 211.544ZM491.712 211.544C491.712 209.432 493.44 207.704 495.552 207.704C497.664 207.704 499.392 209.432 499.392 211.544C499.392 213.656 497.664 215.384 495.552 215.384C493.44 215.384 491.712 213.656 491.712 211.544ZM495.616 214.072C495.296 214.68 495.072 215.608 494.912 216.28C494.176 219.416 492.768 224.408 490.08 227.96C487.2 231.8 482.944 234.968 477.216 236.792L473.728 232.952C480.096 231.48 483.712 228.696 486.272 225.464C488.416 222.808 489.632 219.16 490.048 216.408C488.096 216.408 477.536 216.408 475.136 216.408C473.664 216.408 472.16 216.504 471.328 216.568V212.024C472.288 212.152 474.08 212.312 475.136 212.312C477.536 212.312 488.16 212.312 489.952 212.312C490.592 212.312 491.616 212.28 492.448 212.056L495.616 214.072Z" fill="#404040"/>
</g>
<defs>
<filter id="filter0_d_739_238" x="82" y="157" width="71" height="71" filterUnits="userSpaceOnUse" color-interpolation-filters="sRGB">
<feFlood flood-opacity="0" result="BackgroundImageFix"/>
<feColorMatrix in="SourceAlpha" type="matrix" values="0 0 0 0 0 0 0 0 0 0 0 0 0 0 0 0 0 0 127 0" result="hardAlpha"/>
<feOffset/>
<feGaussianBlur stdDeviation="2.5"/>
<feComposite in2="hardAlpha" operator="out"/>
<feColorMatrix type="matrix" values="0 0 0 0 0 0 0 0 0 0 0 0 0 0 0 0 0 0 0.25 0"/>
<feBlend mode="normal" in2="BackgroundImageFix" result="effect1_dropShadow_739_238"/>
<feBlend mode="normal" in="SourceGraphic" in2="effect1_dropShadow_739_238" result="shape"/>
</filter>
<linearGradient id="paint0_linear_739_238" x1="103" y1="176" x2="132" y2="203" gradientUnits="userSpaceOnUse">
<stop stop-color="#FF6800"/>
<stop offset="0.49" stop-color="#9AFD02"/>
<stop offset="0.92" stop-color="#32E9D9"/>
<stop offset="1" stop-color="#06B6D4"/>
</linearGradient>
<clipPath id="clip0_739_238">
<rect width="588" height="386" fill="white"/>
</clipPath>
</defs>
</svg>
