<svg width="743" height="414" viewBox="0 0 743 414" fill="none" xmlns="http://www.w3.org/2000/svg">
<g clip-path="url(#clip0_739_216)">
<path d="M743 0H0V414H743V0Z" fill="#0A0A0A"/>
<path fill-rule="evenodd" clip-rule="evenodd" d="M147.17 246.543C147.372 246.903 147.368 247.323 147.16 247.681L141.552 257.315C141.004 258.258 139.447 258.256 138.901 257.312L81.0137 157.107C80.5212 156.254 81.238 155.25 82.3409 155.25H95.0848C95.6529 155.25 96.1716 155.531 96.4192 155.974L147.17 246.543ZM152.566 238.233C152.018 239.181 150.454 239.178 149.91 238.229L103.494 157.103C103.006 156.25 103.723 155.25 104.823 155.25H198.105C199.207 155.25 199.924 156.254 199.432 157.107L152.566 238.233ZM177.276 168.526C178.378 168.526 179.095 169.53 178.602 170.383L153.326 214.13C152.778 215.078 151.214 215.075 150.67 214.126L125.616 170.379C125.127 169.526 125.844 168.526 126.944 168.526H177.276Z" fill="url(#paint0_linear_739_216)"/>
<path fill-rule="evenodd" clip-rule="evenodd" d="M141.442 257.267L147.05 247.632C147.24 247.305 147.243 246.92 147.058 246.589L96.3085 156.02C96.0813 155.614 95.6056 155.357 95.0848 155.357H82.3409C81.3298 155.357 80.6727 156.277 81.1244 157.059L139.011 257.264C139.512 258.13 140.939 258.131 141.442 257.267ZM103.604 157.055L150.021 238.181C150.519 239.051 151.953 239.054 152.455 238.185L199.321 157.059C199.773 156.277 199.116 155.357 198.105 155.357H104.823C103.815 155.357 103.157 156.273 103.604 157.055ZM178.713 170.431L153.436 214.178C152.843 215.205 151.148 215.202 150.559 214.174L125.505 170.427C124.975 169.502 125.752 168.419 126.944 168.419H177.276C178.47 168.419 179.247 169.507 178.713 170.431ZM147.16 247.681C147.368 247.323 147.372 246.903 147.17 246.543L96.4192 155.974C96.1716 155.531 95.6529 155.25 95.0848 155.25H82.3409C81.238 155.25 80.5212 156.254 81.0137 157.107L138.901 257.312C139.447 258.256 141.004 258.258 141.552 257.315L147.16 247.681ZM149.91 238.229C150.454 239.178 152.018 239.181 152.566 238.233L199.432 157.107C199.924 156.254 199.207 155.25 198.105 155.25H104.823C103.723 155.25 103.006 156.25 103.494 157.103L149.91 238.229ZM178.602 170.383C179.095 169.53 178.378 168.526 177.276 168.526H126.944C125.844 168.526 125.127 169.526 125.616 170.379L150.67 214.126C151.214 215.075 152.778 215.078 153.326 214.13L178.602 170.383Z" fill="#D4D4D4"/>
<path d="M629.859 225.563V194.635C629.859 192.863 630.302 191.253 631.188 189.807C632.074 188.361 633.239 187.195 634.684 186.309C636.176 185.422 637.785 184.979 639.51 184.979H662.027V194.146H639.859C639.626 194.146 639.416 194.239 639.23 194.425C639.09 194.565 639.02 194.752 639.02 194.985V225.563H629.859Z" fill="white"/>
<path d="M612.923 225.563V184.979H622.084V225.563H612.923ZM612.923 180.921V171.685H622.084V180.921H612.923Z" fill="white"/>
<path d="M574.018 225.563C572.247 225.563 570.615 225.12 569.123 224.233C567.678 223.347 566.513 222.181 565.627 220.735C564.788 219.289 564.368 217.679 564.368 215.907V200.653H596.396V194.985C596.396 194.752 596.303 194.565 596.116 194.425C595.976 194.239 595.79 194.146 595.557 194.146H564.368V184.979H595.906C597.678 184.979 599.286 185.422 600.731 186.309C602.223 187.195 603.389 188.361 604.228 189.807C605.114 191.253 605.557 192.863 605.557 194.635V225.563H574.018ZM574.368 216.397H596.396V208.91H573.529V215.557C573.529 215.79 573.599 216 573.739 216.187C573.925 216.327 574.135 216.397 574.368 216.397Z" fill="white"/>
<path d="M550.868 225.563C549.096 225.563 547.488 225.12 546.043 224.233C544.598 223.347 543.432 222.181 542.546 220.735C541.661 219.289 541.218 217.679 541.218 215.907V171.615H550.448V215.557C550.448 215.79 550.518 216 550.658 216.187C550.845 216.327 551.054 216.397 551.288 216.397H559.05V225.563H550.868Z" fill="white"/>
<path d="M491.103 225.563V175.183H537.466V184.489H500.403V195.685H530.193V205.061H500.403V225.563H491.103Z" fill="white"/>
<path d="M430.47 225.563C428.699 225.563 427.09 225.12 425.645 224.233C424.2 223.347 423.034 222.181 422.149 220.735C421.263 219.289 420.82 217.679 420.82 215.907V194.635C420.82 192.863 421.263 191.253 422.149 189.807C423.034 188.361 424.2 187.195 425.645 186.309C427.09 185.422 428.699 184.979 430.47 184.979H452.358C454.13 184.979 455.738 185.422 457.183 186.309C458.675 187.195 459.84 188.361 460.68 189.807C461.565 191.253 462.008 192.863 462.008 194.635V209.889H429.981V215.557C429.981 215.79 430.051 216 430.19 216.187C430.377 216.327 430.587 216.397 430.82 216.397H462.008V225.563H430.47ZM429.981 201.633H452.848V194.985C452.848 194.752 452.754 194.565 452.568 194.425C452.428 194.239 452.241 194.146 452.008 194.146H430.82C430.587 194.146 430.377 194.239 430.19 194.425C430.051 194.565 429.981 194.752 429.981 194.985V201.633Z" fill="white"/>
<path d="M407.527 225.563C405.755 225.563 404.147 225.12 402.702 224.233C401.256 223.347 400.091 222.181 399.205 220.735C398.319 219.289 397.876 217.679 397.876 215.907V171.615H407.107V215.557C407.107 215.79 407.177 216 407.317 216.187C407.503 216.327 407.713 216.397 407.946 216.397H415.708V225.563H407.527Z" fill="white"/>
<path d="M351.578 241.656V184.979H383.116C384.888 184.979 386.496 185.422 387.941 186.309C389.433 187.195 390.599 188.361 391.438 189.807C392.324 191.253 392.767 192.863 392.767 194.635V215.907C392.767 217.679 392.324 219.289 391.438 220.735C390.599 222.181 389.433 223.347 387.941 224.233C386.496 225.12 384.888 225.563 383.116 225.563H360.739V241.656H351.578ZM361.578 216.397H382.767C383 216.397 383.186 216.327 383.326 216.187C383.513 216 383.606 215.79 383.606 215.557V194.985C383.606 194.752 383.513 194.565 383.326 194.425C383.186 194.239 383 194.146 382.767 194.146H361.578C361.345 194.146 361.135 194.239 360.949 194.425C360.809 194.565 360.739 194.752 360.739 194.985V215.557C360.739 215.79 360.809 216 360.949 216.187C361.135 216.327 361.345 216.397 361.578 216.397Z" fill="white"/>
<path d="M314.904 225.563V194.635C314.904 192.863 315.347 191.253 316.232 189.807C317.118 188.361 318.284 187.195 319.729 186.309C321.221 185.422 322.829 184.979 324.554 184.979H347.071V194.146H324.904C324.671 194.146 324.461 194.239 324.274 194.425C324.135 194.565 324.065 194.752 324.065 194.985V225.563H314.904Z" fill="white"/>
<path d="M276 225.563C274.229 225.563 272.597 225.12 271.105 224.233C269.66 223.347 268.495 222.181 267.609 220.735C266.77 219.289 266.35 217.679 266.35 215.907V184.979H275.511V215.557C275.511 215.79 275.581 216 275.721 216.187C275.907 216.327 276.117 216.397 276.35 216.397H297.539C297.772 216.397 297.958 216.327 298.098 216.187C298.285 216 298.378 215.79 298.378 215.557V184.979H307.539V215.907C307.539 217.679 307.096 219.289 306.21 220.735C305.371 222.181 304.229 223.347 302.783 224.233C301.338 225.12 299.706 225.563 297.888 225.563H276Z" fill="white"/>
<path d="M211.245 225.563V175.253H251.804C253.576 175.253 255.207 175.696 256.699 176.583C258.191 177.469 259.38 178.659 260.266 180.151C261.151 181.597 261.594 183.207 261.594 184.979V198.554C261.594 200.326 261.151 201.959 260.266 203.452C259.38 204.945 258.191 206.134 256.699 207.02C255.207 207.86 253.576 208.28 251.804 208.28L220.476 208.35V225.563H211.245ZM221.315 198.974H251.385C251.618 198.974 251.827 198.904 252.014 198.764C252.2 198.624 252.294 198.437 252.294 198.204V185.329C252.294 185.096 252.2 184.909 252.014 184.769C251.827 184.583 251.618 184.489 251.385 184.489H221.315C221.082 184.489 220.872 184.583 220.686 184.769C220.546 184.909 220.476 185.096 220.476 185.329V198.204C220.476 198.437 220.546 198.624 220.686 198.764C220.872 198.904 221.082 198.974 221.315 198.974Z" fill="white"/>
</g>
<defs>
<linearGradient id="paint0_linear_739_216" x1="140.223" y1="258.021" x2="93.4177" y2="149.817" gradientUnits="userSpaceOnUse">
<stop stop-color="#4A5CE2"/>
<stop offset="0.5" stop-color="#C51EC2"/>
<stop offset="1" stop-color="#EB3F50"/>
</linearGradient>
<clipPath id="clip0_739_216">
<rect width="743" height="414" fill="white"/>
</clipPath>
</defs>
</svg>
